<?xml version="1.0" encoding="UTF-8"?>
<svg id="contents" xmlns="http://www.w3.org/2000/svg" viewBox="0 0 495.38 567.84">
  <defs>
    <style>
      .cls-1 {
        stroke-width: 0px;
      }
    </style>
  </defs>
  <path class="cls-1" d="m463.6,331.33c18.22-34.24,30.07-80.06,31.6-130.67,3.26-108.17-40.85-187.22-100.81-199.08-57.85-11.44-118.7,39.66-121.97,147.83-1.68,55.64,11.91,118.09,33.53,165.87l157.64,16.06Z"/>
  <path class="cls-1" d="m454.02,388.5c-.09,1.15-.19,2.31-.33,3.47l-13.36,110.62c-4.89,40.48-42.01,69.61-82.5,64.72l-10.03-1.21c-40.49-4.89-69.61-42.01-64.72-82.5l13.36-110.62c.14-1.16.31-2.3.51-3.44l157.07,18.97Z"/>
  <path class="cls-1" d="m31.77,331.33C13.55,297.09,1.7,251.27.17,200.66-3.09,92.49,41.02,13.44,100.98,1.57c57.85-11.44,118.7,39.66,121.97,147.83,1.68,55.64-11.91,118.09-33.53,165.87l-157.64,16.06Z"/>
  <path class="cls-1" d="m41.36,388.5c.09,1.15.19,2.31.33,3.47l13.36,110.62c4.89,40.48,42.01,69.61,82.5,64.72l10.03-1.21c40.49-4.89,69.61-42.01,64.72-82.5l-13.36-110.62c-.14-1.16-.31-2.3-.51-3.44l-157.07,18.97Z"/>
</svg>