<?xml version="1.0" encoding="UTF-8"?>
<svg id="_レイヤー_1" data-name="レイヤー 1" xmlns="http://www.w3.org/2000/svg" viewBox="0 0 46.01 153">
  <defs>
    <style>
      .cls-1 {
        stroke-width: 0px;
      }
    </style>
  </defs>
  <path class="cls-1" d="m30.86,24.89v-5.36c1.61-.53,2.78-2.05,2.78-3.84V4.05c0-2.23-1.81-4.05-4.05-4.05h-13.19c-2.23,0-4.05,1.81-4.05,4.05v11.64c0,1.79,1.17,3.31,2.78,3.84v5.36C15.14,37.76,0,62.08,0,76.18v70.58c0,3.45,2.79,6.24,6.24,6.24h33.53c3.45,0,6.24-2.79,6.24-6.24v-70.58c0-14.1-15.14-38.42-15.14-51.3ZM18.43,6.07h9.14v7.6h-9.14v-7.6Zm19.44,130.99H8.14v-45.37h29.73v45.37Zm-3.25-66.86c-7.34-3.52-15.9-3.52-23.24,0-1.32-3.15-2.6-6.19-3.83-9.11,9.27-6.51,21.62-6.51,30.89,0-1.23,2.92-2.51,5.96-3.83,9.11Z"/>
</svg>