<?xml version="1.0" encoding="UTF-8"?>
<svg id="_レイヤー_1" data-name=" レイヤー 1" xmlns="http://www.w3.org/2000/svg" width="563.1" height="104.14" viewBox="0 0 563.1 104.14">
  <defs>
    <style>
      .cls-1 {
        fill: #1d2087;
      }

      .cls-1, .cls-2, .cls-3 {
        stroke-width: 0px;
      }

      .cls-2 {
        fill: #14ad67;
      }

      .cls-3 {
        fill: #fff;
      }
    </style>
  </defs>
  <g>
    <path class="cls-3" d="m141.19,95.73l-1.69.53-3.65-4.81-.89-.45c-1.96-2.58-3.11-5.61-3.29-8.99l.89-.18c1.51-3.74,2.05-7.92,1.51-12.46l-2.31-1.07c-1.25-2.67-2.05-5.43-2.4-8.37l3.74-4.81c2.58-4.81,5.7-9.34,9.43-13.88,3.74-4.54,6.59-9.26,8.63-14.15l-.09-1.33c.8-1.07,1.96-1.6,3.38-1.6l2.23.89c1.78,1.96,2.58,4,2.58,6.41-1.6,3.65-3.56,7.21-5.79,10.68l-2.49,1.07c-2.49,2.4-4.54,4.89-6.23,7.65-1.6,2.85-3.2,5.52-4.54,8.19l4.45,4.18.89,4.45-.36.8c.8,2.22,1.25,4.63,1.25,7.3l-.62,2.85.27,1.25c-.71,2.31-1.16,4.72-1.25,7.3l1.07,5.79c-.09,1.07-.62,1.96-1.6,2.76h-3.12Zm9.17.44l-.53-2.85c3.03-8.37,6.59-16.55,10.68-24.57,4.09-7.92,7.92-15.84,11.39-23.67-2.31-1.42-4.63-2.76-6.68-4.27-1.96-1.42-2.67-3.12-2.4-5.34l1.25-.62.89-2.22c2.23.71,4.36,1.07,6.23,1.07,3.74-.89,7.03-2.85,10.06-5.88,1.33-2.67,2.76-5.25,4.18-7.83,1.51-2.67,2.67-5.43,3.38-8.37l-1.6-.71v-1.34c1.51-.18,2.76-.62,4.01-1.51l.36-.8h.89l.89.36.89-.36c1.07.53,2.14.89,3.38,1.07l.36.89c-.53,2.05-1.33,4.09-2.4,6.23-1.16,2.05-2.14,4.27-3.03,6.41.98.53,2.05.71,3.2.45l.45.89,2.58.53.36,1.6-.36,1.25,1.16,3.83c-2.76,3.47-5.7,6.68-8.81,9.7l-.89.18c-.18,1.33-.8,2.14-1.78,2.4-3.11,1.07-6.05,2.22-8.9,3.47-1.87,2.14-3.38,4.54-4.45,7.39-1.6,2.05-3.38,4.18-5.16,6.5l.18,1.6c-.89,1.69-1.42,3.38-1.6,5.34l-1.07.89c-1.51,3.83-3.29,7.65-5.16,11.48-1.96,3.83-3.29,7.74-4.18,11.66l.18,1.33-1.96,1.25-1.07,1.25h-1.25l-3.65,1.33h-.02Zm25.01-.36l-.89.36-6.94-3.29-.98-2.22.98-.98.36-2.14h1.6l-.53-1.6,1.87.53c3.29-.98,6.41-2.31,9.17-4,1.51-2.67,3.38-5.16,5.43-7.57l4.18-5.07-.8-.89c-3.2,2.49-6.68,4.09-10.59,4.98l-3.38-1.33-1.25.18-2.05-.8-2.05-1.87,2.05-2.05.44-1.87c3.12-1.33,6.05-3.12,8.99-5.16,2.85-2.14,5.96-3.47,9.35-4.01,2.4.45,4.81.98,7.03,1.51,2.31.53,4.36,1.6,6.23,3.2l.36.89c-.44,2.67-1.25,5.43-2.4,8.1-1.16,2.67-2.76,5.16-5.07,7.3-2.23.53-3.74,1.78-4.36,3.83l2.85.36,1.25-.36,3.47,1.42.8-.18c2.67.53,5.07,1.6,7.3,3.12l.36,1.96-1.16.89-.53,2.14c-1.07.89-2.31,1.42-3.65,1.6l-6.32-.53c-3.65.71-7.39,1.42-11.21,2.23l-4.63.09-1.07.62-4.18.62h-.03Z"/>
    <path class="cls-3" d="m261.25,97.07l-.53-1.69-3.38-1.87-1.07-1.33c-3.11-1.51-6.23-3.29-9.35-5.16-1.07,1.33-1.6,2.94-1.6,4.63-2.23,1.07-4.72,1.78-7.57,2.14l-.8-.18-2.49.18c-1.96-.36-3.83-.98-5.43-1.87-.71-1.34-1.42-2.67-2.23-3.92l1.42-.8.89.27c4.18-1.07,8.28-2.4,12.46-3.92,4.18-1.42,8.28-2.94,12.28-4.36v1.78l-3.74,3.03-.36,1.42,8.72.36,1.34-.53c.8.53,1.78.71,3.03.45l.36-3.92-1.07-10.06c-3.65,1.16-7.12,1.96-10.41,2.31-3.65-2.14-7.3-4.72-10.68-7.48-2.49-3.29-3.92-7.03-4.09-11.21l2.05-6.68c-1.96,2.23-3.56,4.36-4.98,6.32-1.33,2.05-2.49,4.09-3.38,6.32l-1.07.89c-1.6,3.29-3.65,6.41-6.05,9.17l-.71,2.14-3.03,4.18c-.89.53-1.96.71-3.38.45l-.18-1.69c3.56-7.12,7.74-14.06,12.46-20.83,4.63-6.76,8.72-13.71,12.19-20.83h1.16l.36-1.25,2.67-1.16c1.78-.89,3.65-1.42,5.79-1.42l1.51.62.8,2.23-1.42,1.78-1.42.89-2.05,2.67-1.6.71-5.25,4.9v1.07l2.94,1.07c.98.89,1.42,2.05,1.33,3.38l-.53,2.49.53,1.78-.53,2.67,1.96,2.67c3.38,1.6,6.76,3.47,10.15,5.43,3.29-2.4,6.76-4.36,10.41-5.96s7.03-4,10.15-7.21c2.31-2.49,3.83-5.34,4.72-8.28-2.94-3.03-6.59-4.36-10.95-3.92-3.29,1.96-6.76,3.47-10.32,4.63l-3.83-1.78-1.69-3.47,7.21-2.67.62-3.92-2.31-4.72c-4-1.25-7.83-2.85-11.48-4.63-.8-2.49-1.96-4.81-3.65-6.94l1.78-1.25c4.09-1.25,8.1-2.85,11.93-4.98,3.83-2.05,8.01-3.47,12.46-4.27,4.01.53,7.83,1.78,11.48,3.74l1.78,2.05.36,2.22c.18,1.6-.27,2.85-1.16,3.92-1.16,1.33-2.58,2.05-4.18,2.14-1.07,1.42-2.49,2.58-4.09,3.47-1.16.45-2.14.89-2.94,1.6l-.36,1.69c.62,1.16.8,2.58.62,4.27l-.18,2.49h1.78l.89-.27,1.6.27,3.47-.27c3.74.53,7.21,1.78,10.32,3.74,1.6,1.42,3.2,2.67,4.63,3.92l1.33,1.51c2.14,1.96,2.94,4.45,2.58,7.57l-.27.62-.8.36-1.96,3.2-4.98,3.92c-2.58,1.33-5.25,2.23-8.19,2.67-2.94.45-5.87,1.16-8.63,2.31-1.25,5.07-1.78,10.06-1.87,15.22l.36.89-.36,1.6c.8,2.4,1.16,4.98.98,7.74l-1.69,4.9-3.83,1.16-7.74,2.49h-.02Zm-6.41-40.41c-.89-.98-1.25-2.23-1.07-3.56,2.67-.53,5.16-1.42,7.39-2.67,2.23-1.16,4.9-1.69,7.92-1.51l2.49,2.22.18,2.67-2.67,2.85c-3.29.8-6.76,1.51-10.41,2.05l-3.83-2.05h0Zm37.38,34.89c-1.96-.8-3.74-1.96-5.52-3.29l-.71-1.07-.98-.18-1.16.18-3.38-1.42-.53-3.03,2.49-2.22v-.98l-8.1-6.94c2.31-1.16,4.72-1.6,7.3-1.25,2.67.53,5.07,1.25,7.3,2.4,2.31,1.16,4.36,2.67,6.23,4.81l1.42,1.25c1.33,1.42,2.05,3.21,2.05,5.16-.36,2.05-.98,3.83-1.87,5.52l-1.07.36-2.14-.36-.98.45-.36.62h.01Z"/>
    <path class="cls-3" d="m302.45,94.57c2.05-6.85,4.36-13.53,6.68-20.12s4.81-13.26,7.21-20.03l.89-.53c1.16-2.49,2.05-5.16,2.85-7.92l-.27-1.6,3.03-5.79,4.45-4.18h3.03l1.51.27.53-2.22c3.92-.8,7.48-2.4,10.77-4.9,3.12-2.14,5.96-4.36,8.63-6.85l.53-1.25h-1.87c-2.58.89-5.25,1.6-7.83,2.4s-5.34,1.69-8.01,2.49l-4.27-1.96-1.6-2.67.62-1.16c2.76-1.33,5.52-2.67,8.37-4.09,2.94-1.42,5.87-2.49,8.9-3.29l.09-1.07,1.51.71c2.23-.89,4.63-1.42,7.21-1.6,2.49-.09,5.07-.18,7.65-.18,3.92.44,7.65,1.42,11.3,2.85,1.96,1.96,3.03,4.36,3.21,7.03l-.89,1.42c-1.42,1.6-3.03,2.94-4.9,3.92-3.74,1.69-7.48,3.29-11.12,4.63l-3.03,3.83c-2.94.89-5.79,1.96-8.63,3.12-.71.71-1.51,1.07-2.58,1.07-3.47,1.6-7.21,2.58-11.12,3.12l-2.49-.89-2.05,1.69-.45,1.16c-5.52,8.01-10.15,16.38-13.8,25.28-3.65,8.81-6.41,18.07-8.37,27.68l-1.96.36-3.74-.71v-.02Zm19.49-.62l-2.85-1.96v-1.16l1.33-1.6,4.01-.62,1.87.36c4.54.36,8.54-.71,12.1-3.12l.36-1.07c-1.16-1.25-2.58-1.69-4.45-1.51l-.8.27-3.65-3.65v-1.25l1.33-1.78c3.29-1.42,6.5-3.12,9.61-4.81,3.03-1.78,6.14-3.29,9.26-4.45l.62-1.78c-.53-.71-1.33-.98-2.31-.8-2.05.89-4.27,1.51-6.85,1.87-2.49.36-4.98.71-7.57,1.07l-3.65-2.05-1.16-3.74.53-1.07-.8-2.85c1.51-.89,3.03-1.96,4.36-3.12l2.49-4c-1.69,0-3.03-.45-4.18-1.25l-.53-2.49,1.69.53c4.81-2.76,9.79-5.52,14.77-8.37,4.9-2.76,10.24-4.54,15.75-5.52l3.2,1.6c.89,1.25,1.33,2.76,1.16,4.45l2.58-.27c4,1.16,7.57,2.85,10.68,5.25,1.16,1.25,1.87,2.58,2.05,4.18l-2.76,2.67h-2.76l-3.12-1.51-1.96-1.69-2.49-.36c-.89,2.05-1.96,4.09-3.2,5.87l-3.92,1.96c-.53,1.69-1.07,3.56-1.6,5.34,4-.18,7.48.71,10.5,2.67l1.07,2.49-3.65,4.09-2.49,2.4c-2.58,1.16-4.98,2.67-7.39,4.45l-.62,4c1.16.53,2.4.71,3.74.53,2.76-.8,5.79-1.16,8.99-.98l4.45.27c3.83-.53,7.65-.71,11.57-.53,1.87.36,3.74,1.07,5.43,2.23l.27,3.2-1.51,2.49-2.85.53-3.12-.8-3.38.53-.8-.27-.8.27c-2.31-.36-4.63-.62-6.94-.89l-.89.27-4.98-.89-2.23,1.42-2.76-.27-1.69.8-2.58-.53-12.02,2.76c-4,.89-8.19,1.42-12.64,1.6l-1.6-.27-1.78.27-8.46.53.02.06Zm24.83-36.31c2.4-1.51,4.9-2.85,7.3-3.83,2.4-.89,4.81-2.31,7.03-4l.27-1.96-1.16-1.42c-3.74,1.87-7.12,3.65-10.24,5.16l-.27.89-.89-.27-2.22,2.31c-2.49.71-4.72,2.14-6.5,4.09l-.27.8.8.27,6.41-2.4-.27.36h.01Zm1.42,21.09v-2.76c-3.03,1.16-5.7,2.85-8.1,4.81l-.27.89c.98.89,2.05,1.25,3.38,1.07l.89-.62,4.09-3.38h0Z"/>
    <path class="cls-3" d="m397.68,96.98c-1.87-2.58-2.94-5.7-3.12-9.26l1.33-.45c1.87-4.36,2.94-9.17,3.2-14.33.27-5.07.53-10.33.71-15.49-.53-3.56-1.78-6.76-3.56-9.7,3.2-.27,5.79.62,7.83,2.58,1.6,1.78,2.22,3.83,1.87,6.32-.53,2.94-1.25,5.79-2.14,8.54l1.16-1.25c1.78,1.96,2.58,4.18,2.4,6.41-.71,3.11-1.33,6.32-1.96,9.52-.62,3.29-1.16,6.59-1.6,9.88l.18,3.2-.8,1.25-1.96,1.78h-2.31l-1.25.98.02.02Zm8.63-61.59c-.53-3.29-1.16-6.5-1.78-9.7s-1.16-6.5-1.69-9.97c2.76.89,5.43,1.96,8.01,3.29l3.03,3.03c1.69,2.4,3.03,5.16,3.92,8.1l-1.6,2.67c-1.42.89-2.94,1.6-4.54,2.14l-.62.98-1.78.36-2.94-.89h-.01Zm22.88,61.86c-2.85-1.07-5.34-2.58-7.57-4.45l-1.07-3.03.27-1.16c-.89-3.65-1.25-7.3-1.07-10.95.98-1.6,1.6-3.2,1.87-5.07l-.36-5.52c.36-3.38.8-6.76,1.25-10.06.53-3.29.98-6.76,1.42-10.15h3.12l1.33.8.89,3.38-.62,1.07-1.33,1.42c-.98,3.92-1.42,7.92-1.6,12.19l.27,1.33-.89,3.92c.45,2.85.8,5.79,1.07,8.81.36,3.12.98,5.96,1.87,8.63,1.42.71,2.94.98,4.72.71,4.18-1.16,8.46-2.05,13-2.85,4.54-.8,9.08-1.69,13.53-2.58l1.69.36-.89-6.41,2.31,1.6c.8-3.2,1.16-6.23,1.16-9.26l-.53-3.03-1.96.53-1.16,2.14-1.6.89c-3.47,3.12-7.12,5.43-10.95,6.76l-1.25,1.42c-1.07,0-1.96.36-2.85.98l-1.07,1.51c-2.4,1.25-4.98,2.22-7.48,2.85l-4.45-.53c2.85-2.05,5.25-4.36,7.21-7.12l-1.51-1.16-2.22-2.22c.18-1.16-.09-2.31-.71-3.29l1.87.53c3.29-.36,6.32-1.33,9.17-2.85,2.76-1.6,5.79-2.67,8.99-3.29-2.94-3.12-4.54-6.68-4.63-10.59s-.09-7.83-.27-11.66l-.89-.36c-2.58,2.94-5.07,6.14-7.21,9.61-.71,1.6-1.6,3.03-2.67,4.45l-2.76.89-.89-1.78c.98-4.09,1.6-8.37,1.78-12.73l-1.33-4.72,3.03-.89,3.03.89.71-.36,2.14.36,4.45-2.58.27-2.4c0-2.05-.53-4-1.69-5.7-2.49-1.25-5.16-2.4-7.74-3.38-1.51-2.4-2.49-5.07-2.85-8.01l1.69.36c3.83-1.78,7.83-3.29,11.93-4.81l.62-1.42,2.23-.45,1.16-.8c.53-.89,1.42-1.25,2.58-1.07,3.56.09,7.03.62,10.5,1.6l.53.98,1.07.89.27,4.36c-1.69,2.22-3.47,4.45-5.16,6.5l-.27.89-.89.36c-.18,1.25-.71,2.23-1.6,3.12l-2.49.89-1.16,3.56c1.16.53,2.4.71,3.74.53l.8-.36c2.85.53,5.7,1.16,8.37,2.05,2.67.89,5.25,2.23,7.74,3.92.71,1.42.89,2.94.8,4.72-.89,1.33-1.25,2.67-.98,4.27,0,3.65-.27,7.3-.8,10.95l.27,1.33-1.69,7.12.27.8c-.62,8.37-.45,16.64.62,24.92l-.8,1.69c-1.07.89-2.4,1.25-3.83,1.07l-2.23-1.69c-1.96-.8-4.09-.98-6.32-.62l-5.34-.8-3.38.8-3.38-.27c-2.67.98-5.61,1.69-8.63,2.05-3.03.36-5.96.71-8.9,1.16l-3.65,3.47-.04.04Zm31.95-46.28c-.18-3.74-1.6-6.94-4.18-9.52l-4.72-1.87c-.8.53-1.16,1.25-.98,2.14l.53,6.59-.53,6.94,1.07,2.49,1.69.53,1.16-.18c1.87.89,3.92,1.69,5.96,2.31v-9.43Z"/>
    <path class="cls-3" d="m478.32,88.43c4.36-6.32,8.01-12.99,10.95-19.94,3.03-7.03,5.7-14.06,8.1-21.09l-.98-2.14c1.07-.27,2.05-.89,2.85-1.78,2.05-2.05,4.27-3.38,6.5-4l1.42.89c.8.89,1.16,2.14.98,3.65-4.18,7.12-8.19,14.51-12.02,22.16s-7.65,15.22-11.57,22.79c-1.25.71-2.67,1.07-4.09,1.07l-2.14-1.6h0Zm40.76,8.9c-4.45-.98-8.54-2.85-12.28-5.7-2.94-3.2-4.18-7.03-3.74-11.48.53-2.76,1.87-5.25,4.18-7.57l3.92-3.03.71,1.51,1.51,1.87h1.42c3.2-1.69,6.5-3.12,9.79-4.27l.27-1.07-.53-1.33c2.05-4.18,2.76-8.81,2.05-13.8-.45-2.49-1.16-5.07-2.14-7.48h1.96v-3.03c0-4.09-1.16-7.65-3.65-10.59-3.74,2.4-7.92,3.74-12.37,3.92-3.29-.62-6.5-1.69-9.7-3.03l-1.96-3.92-.53-.8c4.18-1.33,8.37-2.31,12.64-3.03,4.27-.62,8.28-1.78,12.19-3.38l.27-.98c-1.07-4-2.76-7.74-4.81-11.21,2.58-1.25,5.34-1.96,8.37-2.14,3.29.53,6.41,1.42,9.35,2.58,1.33,1.69,2.31,3.47,2.85,5.25l.89.27c2.85-1.16,5.79-2.05,8.72-2.85l2.85.27.89-.27c1.69.18,3.29.8,4.63,1.87.36,1.25.71,2.49.98,3.65l-1.25,1.78c-1.33.71-3.03.98-4.89.98l-3.29-.27c-4.18.71-8.1,2.05-11.75,3.92.45,3.47,1.16,6.68,2.4,9.61l-.36,1.07.8.27,3.65-.89.89.36,2.23-.53,5.34,2.49.62,2.76-.62,1.07-1.16.89-.8,3.65-2.76,1.87-2.85,3.38c-2.31,1.33-4.81,2.23-7.56,2.58-.36,3.29-.8,6.5-1.34,9.61l1.42.36,10.95-1.33c4.36.98,8.37,2.76,12.1,5.16l1.42,2.23,1.07.8c.8,1.42,1.16,3.03.98,4.9l-3.47,3.65c-1.96,0-3.65.62-4.9,1.78l-.89,1.16-.45,1.07,2.23,3.12,1.07.8v1.6l-.71,2.05-3.74,3.29-4.18.53-.8-.27-3.12.62c-3.03-.62-5.96-1.16-8.9-1.51l-1.6.27-3.47-2.49v-1.96l.27-1.07-.53-2.58.53-.8,1.42.27c2.85-1.87,5.43-4.09,7.65-6.5,2.23-2.4,4.36-4.98,6.23-7.83-1.25-2.22-2.94-3.12-4.9-2.58-1.69.18-3.29.71-4.72,1.69l-1.78,1.87-2.76.8-1.6,1.96c-2.85,1.42-5.96,1.96-9.43,1.6-1.69-.62-3.12-1.51-4.36-2.58l-3.65,6.94,2.76,1.34,1.51-.27c2.94,1.42,5.79,3.03,8.63,4.63,1.25,1.42,1.87,3.21,1.69,5.52l-3.38,3.65-1.51.27-3.12,3.03v-.02Z"/>
  </g>
  <g>
    <g>
      <circle class="cls-3" cx="53.04" cy="51.58" r="45.25"/>
      <g>
        <path class="cls-3" d="m100.17,44.22c.16.66-.06,1.29-.24,1.06.58,1.31.17,1.39.9,1.49.4.86-.04,1.85-.39.86l.58,2.53.04-1.54c.63.39-.06,2.47.67,2.95l-.2-2.82.21.13c-.25-.63-.22-1.88-.17-2.32.11.06.26,0,.31.5-.37-3.41-1.16-.8-1.76-3.53.04.17.07.38.05.69Z"/>
        <path class="cls-3" d="m101.14,41.11l-1.04-.99-.31-1.98c-.26.05-.82-1.28-.8-.27.09.17.26.51.31.81-.3-.03-.53-.64-.74-1.15-.23-.5-.47-.9-.64-.54.64,1.41.5,1.69,1.2,2.48.28,1.39.48,2.4.34,3.1.15.4.5.39.65.91-.03-.12-.05-.22-.08-.36l.83-.21c-.26-.41-.21-.86-.35-1.34.49.69.9,1.41,1.36,2.14.34-.44.3-1.23.2-2.03-.14-.79-.4-1.58-.35-2.08-.41,1.29-.57-.8-.59,1.51h.01Z"/>
        <path class="cls-3" d="m100.11,43.48s0,.04.01.06c0-.02,0-.04-.01-.06Z"/>
        <path class="cls-3" d="m18.06,76.24c.28.34.51.33.63.32-1.04-1.26-1.79-2.71-2.67-4.08-.12.24.38,1.6-.23.85,0,.49.87,1.49,1.22,1.49l-.47-.12c.93.75.7,1.86.05,1.39.02.03.04.05.06.08,1.11.54,2.19,1.05,3.25,1.53-.6-.97-.98-.35-1.83-1.45h0Z"/>
        <path class="cls-3" d="m96.08,58.87c-.02.66.05.75.14.69-.03-.24-.06-.48-.14-.69Z"/>
        <path class="cls-3" d="m20.63,78.03c.32.15.69.25,1.03.38-.36-.19-.75-.3-1.03-.38Z"/>
        <path class="cls-3" d="m9.94,76.57s-.05.01-.07.06l.5.3h0c-.15-.14-.29-.26-.42-.36h-.01Z"/>
        <path class="cls-3" d="m38.83,88.77c.1.02.18.04.29.07-.1-.03-.2-.05-.29-.07Z"/>
        <path class="cls-3" d="m1.39,62.81l1.16,2.49c-.32-.28.07.95-.34.48.09.19.42,1.09.48.8l-.15-.53c1.04,1.16,1.02.29,2.3,2.27-.05-.73-.21-1.21-.43-1.59-.19-.39-.44-.67-.69-.99-.11-.23-.19-.44-.27-.64l-1.5-1.9-.56-.4h0Z"/>
        <path class="cls-3" d="m83.43,88.3v.06s.01-.05,0-.06Z"/>
        <path class="cls-3" d="m83.5,88.6l-.06-.24c-.03.17-.37.55.06.24Z"/>
        <path class="cls-3" d="m20.07,78.03c.12-.06.32-.06.56,0l-.74-.33c.06.09.11.21.17.33h.01Z"/>
        <path class="cls-3" d="m17.86,77.61l-1.21-1.45-.67-.39c.46.57,1.1,1.16,1.88,1.85h0Z"/>
        <path class="cls-3" d="m36.51,87.35c3.22,1.43-1.12.38.26,1.26.46.19.83.19,1.15.17.32-.02.59-.06.9,0-1.39-.33-1.17-.59-.96-.87.22-.29.41-.53-.86-1.05.33-.25.83-.17,1.38-.05.56.11,1.13.35,1.53.6.76,1-1.03.15-1.51.69,1.1.28.95.1,1.53-.1,1.58.84,3.65.21,4.41,1.42,1.25.19,1.25-.22,2.01-.45.13-.35-.3-.51-.81-.66-.5-.19-1.06-.41-1.21-.75.07.08.22.25.15.34l-.98-.41c.9.49-.31.67-.86.59-.39-.08-1.16-.24-.99-.42.2.03.41,0,.62,0-.67-.38-1.75-.06-2.39-.69.02-.17.33-.14.41-.22-1,.13-1.86-.09-3.19-.41l.99-.32c-1.26.25-3.46-.94-4.62-2.27.09.2.34.45.09.47-.94-.37-1.32-1.17-.72-1.26-.28,0-.62-.12-.94-.37-.32-.25-.66-.58-1.01-.91s-.71-.65-1.08-.91c-.19-.13-.37-.24-.56-.32-.18-.1-.36-.17-.54-.21-1.13-.21-2.31-.45-3.53-.72-1.15-.34-2.31-.73-3.52-1.14.24.12.47.27.68.45-.07.86.22,1.07-.95.67.96.56,1.07-.09,2.13,1.05-.62-.24-1.3.17-.28,1.31.82.53,1.62.94,2.41,1.29.4.17.77.34,1.17.46.41.1.81.21,1.21.31.78.19,1.56.37,2.36.56.78.2,1.62.31,2.43.55-.08.24.46.67,1.14,1.14.7.44,1.59.82,2.13,1.16-.65.25-1.61,0-2.53-.38.52.34,1.51.79,2.21,1.17l.73-.79v.02Z"/>
        <path class="cls-3" d="m28.48,84.46c.05.09.11.17.17.24-.02-.06-.07-.14-.17-.24Z"/>
        <path class="cls-3" d="m33.32,86.81s-.02.02-.04.04l.29.13c-.09-.06-.19-.13-.25-.17Z"/>
        <path class="cls-3" d="m19.78,79.43c-.27-.08-.41-.18-.65-.29.12.09.26.21.41.3.16.08.27.09.24-.02h0Z"/>
        <path class="cls-3" d="m19.96,78.28l.23-.03c-.04-.09-.08-.15-.12-.23-.1.05-.15.13-.11.26Z"/>
        <path class="cls-3" d="m49,95.24l.38-.09c-.23,0-.33.04-.38.09Z"/>
        <path class="cls-3" d="m39.86,89.6c-1.19-.39-.38.64-2.07.02l.48.22c-.33-.04-.71-.12-1.12-.24-.4-.12-.81-.33-1.23-.53-.83-.4-1.69-.82-2.38-1.16.28-.16-.64-.77-.26-1.08-.93-.45-1.86-.89-2.58-.78-.49-.43-1.5-.72-2.05-1.37.12.43-1.51.03.33.98-.15-.07-.11.04-.26-.02.82,1.14,1.68.82,2.64,1.41.44.58-1.18-.21-.69.22.68.26,1.59.93,2.4,1.38.85.39,1.56.61,1.74.14.95.38.98.64,1.19.95.93-.08,2.31.45,3.5,1,1.18.57,2.25.82,2.43.17-.29-.05-.67-.12-1.08-.2-.4-.11-.85-.2-1.3-.21l.32-.9h-.01Z"/>
        <path class="cls-3" d="m21.35,81.05c.05.07.13.14.17.2-.05-.06-.11-.13-.17-.2Z"/>
        <path class="cls-3" d="m16.25,65.34l1.02.15c.14.32.27.62.39.9.12.28.27.52.39.76.24.48.43.9.62,1.32.18.42.36.84.55,1.28.22.44.51.88.83,1.41,0,.23-.23,0-.35-.1.52.71,1,1.7,1.64,2.51.64.81,1.27,1.56,1.8,1.94.08.11.18.28.28.47.12.17.23.36.31.53.17.34.22.6-.07.48.25.15.51.33.7.58-.18.28-.54-.46-.75-.29.15.2.17.31.29.29-.5-.13-.52,1.06-1.87-.44.08-1.07,1,.98,1.33.09-.44-.49-.64-.22-.75-.2-.53-.65-.32-.79-.16-.87-.39-.1-.73-1.16-1.32-1.28-1.03-1.27.56-.3-.08-1.13-.35,0-.72,0-1.06-.02l-.78-1.61c-.8-1.02-1.07-.77-1.38-.53-.16.12-.32.23-.58.16-.25-.07-.63-.3-1.05-.95.56.15.7-1.29.26-2.61.2.37.58.84.95,1.34.37.51.69,1.06.88,1.56-.2-1.6,1.14,1.71,1.39.66-.68-.44-1.41-1.44-1.6-2.41l.2.24c-.34-.94-1.49-1.25-1.79-2.67-.26-.65,0-.61.23-.57-.32-.5-.65-.94-.48-1h0Zm.68,1.35c.08.3.21.58.32.87.04-.26-.14-.55-.32-.87Z"/>
        <path class="cls-3" d="m95.03,26.16c.04.11.09.24.12.34,0-.09-.06-.21-.12-.34Z"/>
        <path class="cls-3" d="m9.75,27.69l.37-.56c-.16.21-.28.39-.37.56Z"/>
        <path class="cls-3" d="m17.07,13.74l.64-.85c-.3.29-.48.56-.64.85Z"/>
        <path class="cls-3" d="m90.41,19.65l-.02-.03s-.09-.05-.14-.09l.16.11h0Z"/>
        <path class="cls-3" d="m45.78,1.89c.16.05.34.09.58.1-.04-.08-.25-.11-.58-.1Z"/>
        <path class="cls-3" d="m16.96,13.89l.06-.03s.04-.08.06-.12l-.12.16h0Z"/>
        <path class="cls-3" d="m4.65,32.85c-.03.15-.05.29-.08.46.06-.21.07-.34.08-.46Z"/>
        <path class="cls-3" d="m7.22,32.83c-.03.15-.06.3-.07.43l.07-.43Z"/>
        <path class="cls-3" d="m2.09,55.86l.17.93c-.04-.46-.1-.73-.17-.93Z"/>
        <path class="cls-3" d="m5.87,34.9c.02.06.04.13.06.17.02-.13,0-.2-.06-.17Z"/>
        <path class="cls-3" d="m95.42,32.28s-.02-.04-.03-.05l-.1.02.12.02h0Z"/>
        <path class="cls-3" d="m97.4,33.72c.11.23.22.47.33.7-.09-.27-.22-.53-.33-.7Z"/>
        <path class="cls-3" d="m58.99,3.07c.22.16.75.39.48.49.47-.11.5-.54-.48-.49Z"/>
        <path class="cls-3" d="m88.92,31.18c.16.05.32.13.47.22-.26-.18-.47-.34-.47-.22Z"/>
        <path class="cls-3" d="m89.39,31.4c.13.09.26.19.38.26-.12-.1-.25-.19-.38-.26Z"/>
        <path class="cls-3" d="m52.96,9.71c-.05-.06-.13-.1-.24-.11.03.11.12.13.24.11Z"/>
        <path class="cls-3" d="m97.82,35.06c.23.05,1.81,3.1.93.38.61-.1.96,1.63,1.25,2.34,0-.59.46.16.63-.07-.18-.35-.43-.75-.63-1.36.17-.37.71.48.77,1.26.08-1.01.78,1.02.69-.35-.21-.69-.52-1.29-.79-1.86-.28-.57-.55-1.09-.84-1.58-.29-.49-.58-.94-.9-1.36-.32-.42-.74-.78-1.15-1.14.21.35.42.7.63,1.06.18.37.35.75.5,1.13.31.75.57,1.49.67,2.15l-.7-.34c-.03-.77-.2-1.34-.43-1.89-.12-.27-.24-.54-.36-.83-.14-.28-.3-.57-.44-.9.42,1,.63,2.08.93,3.12.09,1.57-.35.65-.85-.42.09.27.15.53.09.63v.03Z"/>
        <path class="cls-3" d="m92.68,34.9v.05s.06.08.09.09l-.09-.14Z"/>
        <path class="cls-3" d="m13.05,54.81l.22.21c-.1-.18-.17-.24-.22-.21Z"/>
        <path class="cls-3" d="m94.33,32.24h0s-.02-.02,0,0Z"/>
        <path class="cls-3" d="m13.06,49.1s.03.02.04.03c-.02-.02-.03-.02-.04-.03Z"/>
        <path class="cls-3" d="m1.46,46.42s-.05,0-.08.04c.02.16.05.09.08-.04Z"/>
        <path class="cls-3" d="m13.01,49.09h.05s-.03-.02-.05,0Z"/>
        <path class="cls-3" d="m22.34,22.75s-.13,0-.29.05c0,.08.08.07.29-.05Z"/>
        <path class="cls-3" d="m18.03,26.73s-.07.03-.11.05l.11-.05Z"/>
        <path class="cls-3" d="m57.64.45c-.35-.03-.61-.03-.83-.02.25.03.52.04.83.02Z"/>
        <path class="cls-3" d="m13.1,49.13c.05.06.11.15.18.28-.07-.15-.13-.23-.18-.28Z"/>
        <path class="cls-3" d="m27.38,14.75c-.04.06-.08.11-.12.16l.11-.04v-.12h.01Z"/>
        <path class="cls-3" d="m30.29,13.37c-.06.11-.07.19-.09.27.42-.39,1.11-.81,1.69-1.19.6-.33,1.09-.66,1.07-.97-.17.09-.75.28-1.27.39-.51.13-.94.22-.88-.03-.62.54-1.85.82-2.17,1.12,1.3-.42.38.34-.27.96-.78.28-.13-.47-.78-.19l-1.48,1.18,1.36-.92-.08.75c.04-.05.06-.09.1-.14,2.14-1.72.63.54,2.8-1.23Z"/>
        <path class="cls-3" d="m30.19,13.64c-.13.12-.23.23-.3.34.21-.14.27-.24.3-.34Z"/>
        <path class="cls-3" d="m40.5,10.02c.13-.05.26-.11.43-.2-.08.04-.27.12-.43.2Z"/>
        <path class="cls-3" d="m15.35,74.56c.11-.13-.4-1.63-.76-1.39.2.42.41.84.61,1.27,0,0,.15.12.15.12Z"/>
        <path class="cls-3" d="m70.29,9.06c-.17-.07-.34-.14-.51-.2-.04,0-.09.02-.12.03.08.1.45.15.63.17Z"/>
        <path class="cls-3" d="m31.13,11.4c-.22.21-.3.34-.33.44.15-.13.27-.27.33-.44Z"/>
        <path class="cls-3" d="m70,10.04c.17.19.41.47.38.65.41.2.79.14,1.25.27-.51-.15-1.02-.52-1.63-.92Z"/>
        <path class="cls-3" d="m15.68,75.46c.1.1.19.2.29.31l-.21-.12c.16.33.29.68.47.99.1.09.21.19.32.32-.05-.05-.12-.07-.18-.07l.17.31c.89.44,2.4,1.96,2.99,2.25.69.47,1.43,1.12,1.81,1.6-.38-.43-.95-.93-.98-.6.3.52.41,1.01.67,1.5.26.5.68,1.02,1.67,1.46-.29-.27-.6-.52-.88-.8.87.39,1.75.74,2.6,1.1.42.92-1.29-.53-1.8-.53.93.53,1.49,1.3,2,1.97.48.69,1.01,1.12,1.64,1.1-.19.47-.5,1.25.65,2.05-.48-1.05.87.21.56-.77.27.03.55.29.8.52.25.22.49.37.62.24l-.22.1c1.6,1.86,2.88,1.26,3.91,1.37,1.28.51,2.17.96,3,1.41.21.11.41.22.61.33.21.09.43.18.65.27.44.18.91.35,1.44.53-.03.34.25,1.4,1.13,1.69.53-.24,2.6.02,2.93-.46-1.49-.63-1.4.13-2.39.02-.58-.85.1-.59-.81-1.3.19.13.52.26.92.4.41.13.9.2,1.39.31.98.21,1.95.47,2.36.86h-.35c.7.37,1.08.86,1.62,1.23.54.37,1.26.62,2.61.4.43-.05.85-.09,1.27-.2-.07.05-.08.12-.11.17,2.03.16,1.45.78,3.73.38-.18.03-.07.1-.24.13.64.22,1.3.08,1.9-.09.61-.17,1.16-.39,1.64-.48.62.44-.11.47-.46.83,2.33.17,4.67-1.17,5.92-1.9.5.04.97-.02,1.46-.04-.78.44-1.74,1.07-1.43,1.31.79-.21.58-.41,1.71-.61-.12.34-.53.75-.99,1.24,2.46-.09.28-1.17,2.13-.69.74-.18,1.04-.72,1.02-1.09.48.03.97.11,1.44.09,0-.5,1.56-1.09,2.55-1.53.05-.23-1-.16-1.32.15-.05-.37.96-.92,1.65-1.17.66.86,4.28-2.19,4.02-.77.74-.4,1.47-.99,2.25-1.52.76-.56,1.6-1.05,2.31-1.66s1.39-1.19,1.99-1.72c.29-.27.57-.52.82-.76.23-.26.43-.51.6-.73.71-.28,1.81-1.27,1.46-.33.5-.45.9-.9,1.24-1.33.33-.44.57-.92.84-1.36.51-.91,1.09-1.72,2.01-2.67.11-.05-.06.19-.23.46-.19.25-.37.53-.22.6.23-.38.47-.71.72-1.04.26-.33.56-.63.88-.96s.66-.68,1.01-1.1c.17-.21.36-.43.53-.68.15-.26.3-.54.45-.85-.22.4-.12.62-.07.73-.16-.05.3-1.14.52-1.81.28-.29-.17.51.05.38.77-1.06,1.47-2.09,1.89-3.21.45-1.11.9-2.17,1.19-3.29.27-1.13.52-2.24.82-3.38.26-1.14.43-2.34.78-3.57-.38,1.4.11,2.11.36,2.2l.37-1.41c-.19-.62.15-1.66,0-2.61.14-.09.33-.5.41-.03.53-1.37.45-2.53.24-3.75-.27-1.23-.59-2.49-.33-4.21l1.09,4.3.51-1.03c.15.65.37,1.31.44,1.97.53-1.11-.33-2.19.19-2.29.13.25.05.84.31.88.25-1.11-.11-1.22-.16-2.06.98,2.25.4,6.69.02,9.04-.02.38-.15-.37-.24-.45-.21.95-.65,1.43-.79,2.65.21.85.44-.47.64-1.05.33.17.24.46.12,1.14-.41.04-1.34,3.48-2.2,4.07-.26.85-.33,1.27-.3,1.47.04.2.21.19.36.18.32-.03.59-.1-.27,1.47l-.96.71c-.13.51-.27,1.05-.44,1.61-.2.54-.45,1.09-.7,1.65-.26.55-.54,1.11-.83,1.65s-.61,1.06-1,1.5l.28-.41c0-.4-.45-.05-.69.07-1.25,1.24-1.61,2.97-2.76,3.4-.44.93-1.15,2.1-1.93,3.28-.83,1.13-1.79,2.21-2.55,3.12-.95-.15,1.85-2.49,2.19-3.5-.47.51-1.01.95-1.52,1.43.95-.88,1.14-1.41,1.34-2.28-.63.64-1.02,1.09-1.33,1.62-.32.52-.61,1.06-1.19,1.72-.03-.24-.28-.18-.87.35l.14.53s-.12.01-.34.13l-2.3,2.09c.65-.22.93.1,1.58-.38-.4-.05.11-.51.76-.99-.37.67.81-.26.95-.06-1.31.99-2.88,2.23-3.67,2.99l-.55-.19c-1.38.71-2.66,1.78-3.62,2.21l.17-.38c-1.69.75-3.24,1.78-4.89,2.07-1.35,1.02-3.16,2.22-4.34,3.11-.28.37-1.54.51-2.92.71-1.37.26-2.91.28-3.79.85-.13-.04,1.23-.63,1.82-.95-1.25.1-2.14.97-2.61.42,2.82-.22-.22-.46,1-.82-1.29.18-2.62.58-3.25.78,2.11-.21-.67.98,1.45.42-.8.42-1.79.6-2.83.76-1.04.14-2.13.21-3.14.13.02-.26-.23-.4-.97-.54l-.62.35c-.94-.12,1.83-.36-.05-.59-.98.26-2.45.16-3.76-.03-1.31-.22-2.49-.35-3.02.18-1.39-.7,2.88-.05.76-.97,1.34-.25,3.02.56,3.51-.08-1.26.1-.4-.54-1.19-.64l-1.42.16.3.07c-2.41.3-6.03-.79-8.88-1.68-1.29-.15-2.45-.17-3.65-.31-1.16-.22-2.37-.58-3.77-1.29.5.04-.05-.32-.45-.65-.4-.35-.65-.68.36-.5-1.09-.96-2.45-1.4-2.63-1.18,1.03.73.33.3,1.18.97-.78-.09-2.2-.98-2.67-1.51.26.18.19.07.3.02-1.17-.97-.79-.11-1.76-.65-.02-.57-1.88-1.55-2.53-2.33-.53-.11-1.01-.3-1.52-.46.87.22-.94-1.06-.85-1.5-.96-.49-2.03-.67-3.01-1.96.6.34-.75-1.3-.45-1.6-.38-.57-.81-1.01-1.26-1.4-.42-.42-.86-.78-1.3-1.14-.86-.74-1.77-1.46-2.23-2.72.13.01.63.3.33-.4-.41-.44-.91-1.36-1.28-1.87h.02-.03c-.18-.26-.33-.41-.42-.36-.46-.36-.87-.61-1.32-1-.42-.4-.9-.93-1.53-1.84-.36.35.59,1.98,1.14,2.59l.78.36c-.29.94,1.13,1.62,1.18,2.18-.71-.33-1.52-1.35-2.35-2.5-.77-1.19-1.48-2.56-2.23-3.49,0,.78.31,1.89.79,3.1.22.62.56,1.22.91,1.82s.73,1.2,1.1,1.77l-.37-1.18.75,1.21-.27-1.44c.31.59.64,1.12.97,1.62.32.51.66.99,1.02,1.47-.44-.55-.55-1.06-.53-1.33.02-.27.17-.29.33.07.48,1.55,1.21,1.13,1.87,2.09-.36-.55-.86-1.24-.3-.96.94,2.19,1.53,2.52,2.51,4.48.43-.73,1.85,1.91,2.54,1.68l-.61-.77c.58.4,1.15.79,1.79,1.12.95,1.76-1.73-.66.11,1.65,1.96,1.89,2.43,1.22,4.15,2.41-.42-.02-1.03-.2-1.71-.51-.66-.33-1.35-.85-1.98-1.42l.62.88c-.58-.17-2.36-1.8-3.17-2.68.88.51.76.31.36-.12-.38-.45-1.01-1.16-1.15-1.63-.46.19.45,1.08-.83.23.48.52.75.82,1.06,1.15.3.34.59.75,1.21,1.41-.7-.67-1.19-1.18-1.68-1.49-.48-.32-.91-.5-1.33-.68s-.83-.35-1.25-.66c-.21-.15-.43-.34-.66-.58-.21-.25-.42-.56-.65-.94,1.13,1.14.19-.86.26-1.15-.49-.56-1.48-1.7-1.94-2.13l-.22.84c-.75-.72-.83-1.48-1.02-2.21-.18-.74-.41-1.47-1.31-2.29-.51-.06.94,1.82.66,1.5-2.08-2.49-1.51-4.13-2.26-6.81-.24-.07-.67.16-1.34-.63.49.13.4-.61,1.09.28-.2-.92-.83-1.85-1.27-2.56.45,1.91-.82-.55-1.17-.82-.28-.98.49.17.81.71-.18-.8.07-1.88-.67-2.13.4-.15,1.83,1.77,2.43,3.09l-.28-.95c.44.56.42.7.7,1.64-.03-1.02.35-1.06.7-.97-.02.14-.12-.03-.13.11.16.77.49,1.28.64,1.02.42.2.36-.07.27-.48-.1-.41-.27-.95-.23-1.24-.17-.35-.34-.71-.51-1.05l-1.55-1.59c-.5-.55-.94-1.13-1.42-1.71-.62-1.66-.46-2.52-.41-3.85l-.54-.26c-.19-1.52-.24-2.96.52-2.09-.15.08-.09.27-.06.6.07.03.13.1.18.19.03.03.06.04.1.06-.41-1.57-.66-2.55-.68-2.64,1.11,2.61.9.02,1.84.38-.26-.87-.36-1.75-.51-2.64-.19,1.65-.42.06-.57-.52.5-.18-.15-2.18-.05-3.14l.1.07c.21-.88.24-2.41.16-3.51-.16.04-.93-1.44-1.25-2.19-.25.95-.32,1.14-.43,1.1-.11-.04-.22-.3-.37-.24.03-.2.11-.56.05-.61-.1-.29-.24.36-.41.4.1,2.12.07,4.27.71,5.12.34-.63-.25-1.08,0-1.79.2.52.27,1.1.27,1.77.02.67.05,1.42.08,2.27l-.38.58.31,1.71c-.25-.7-.66-.23-.84-2.06-.38.25.18,1.81.11,2.94.18.17.41.34.61.51-.34-.19-.04,2.2-.7.56-.32-.9-.47-1.82-.68-2.75l-.33.81-.23-2.39.31.55c-.53-3.83.93-1.13.44-4.96-.57-1.23-.69-2.57-.12-4.89-.11,1.72.43.24.72.92.53-1.67.08-2.32-.03-3.26.41-.37.74-.62.45.89.7.32.16-2.03.99-2,.61-2.44.27-3.58.11-4.83-.07-1.21-.02-2.57,1.53-5.21l.18.32c.65-1.8,1.31-3.18,1.97-4.5.75-1.27,1.54-2.48,2.36-4.06.7-.66,1.51-1.22,2.25-1.82-.28.57-.78,2.22-.02,1.81-.73.29-1.18.82-1.62,1.37-.43.55-.83,1.14-1.39,1.65.1.23.53-.2.77-.35-.45.74-1,.92-1.44,1.99.14.01.97-.95.57-.1-.39.37-.74.77-1.12,1.16-.7,1.98.59,1.42-.65,3.5-.2-.57-.37-1.66-.05-2.57-.57.98.42-1.47-.26-.65-.07.88-.3,1.43-.58,2.04-.31.59-.59,1.28-.77,2.36,0-.27-.09-.38.06-.89l-1.33,2.86c.31-.31.18.34.06,1.04-.1.71-.13,1.5.17,1.43.13-.39.23-.72.33-1,.11-.28.2-.51.28-.71.15-.4.25-.69.35-1,.2-.6.44-1.27,1.24-2.97-.26,1.05-.2,2.53.07,3.28-.03.02-.07.07-.11.17.32.7.66.21,1.55.54-.04-.87.17-1.53.42-2.2.23-.68.59-1.34.84-2.29-.29-.54-1.14.72-1.34,1.69.07-.59.24-1.14.38-1.71l.07.4c.69-1.28,1.34-2.59,2.08-3.83-.39.72-.21,1.14-.2,1.62.27-.49.6-.93,1.05-1.35-.5-.14-.77-.37-.47-.84.77-1.17,1.46-2.02,2.07-2.64.62-.62,1.25-.96,1.77-1.2.05-.09.11-.19.16-.28-.69.07.43-2.12.57-3.14.38.37,1.21-.87,1.95-1.28-.16-.72-1.16-.87-2.21-.44-.88,1.8-.3,1.18-.25,2.38l-1.4,2.75v-.83c-1.12,1.08-1.31,2.69-1.78,2.26.04-.45.26-.95.55-1.41s.57-.91.64-1.36l-.8.69c.58-1.82,1.03-.4,2-2.4-.9.32.08-.19.39-1.15-.77.36-2.22,3.2-2.55,2.12.19-.58.99-1.21,1.76-1.9.77-.69,1.63-1.34,1.79-2.22l.03.12c.8-.8,1.24-1.43,1.53-1.97.29-.54.47-.95.67-1.36.92-.44,1.63-1.65,2.4-2.39l.15.22c.33-.37.72-.68,1.09-1.01-.28.78-1.37,1.08-2.27,2l.44.26c-1.47.56-1.63,1.84-2.09,2.94.85-1.46,3.45-3.02,3.11-4.02.35-.11.74-.18,1.11-.25l.28-.43c.84-.15.55.74-.48,1.73-.26.07-.4.11-.41-.02-.36.62-.56,1.31-1.82,2.31l.46-.77c-.74.68-1.47,1.31-1.91,1.99-.46.66-.76,1.24-.81,1.65.51-.5,1.02-1,1.53-1.49.52-.48,1.07-.92,1.6-1.38,1.07-.9,2.04-1.88,3.14-2.65-.05-1.35.36-2.43.1-3.52.36-.32.74-.67,1.16-1.01.44-.31.9-.62,1.36-.91.93-.58,1.87-1.08,2.67-1.34l-.03.25c.73-.33,1.39-.65,1.89-1.04.88-.13-.27.74.32.61l2.28-1.48c.03.5-1.99,1.47-2.93,1.97.16-.12.49-.37.35-.37-1.26.31-2.79,2.27-3.61,1.96-.46.42.8-1.07-.99-.02-1.34.5-1.36,1.29-1.35,1.54.11.19,2-.87,1.54-.21.88-.58,1.07-1.09,2.36-1.57-.89.57-1.81,1.76-2.51,1.71-1.45,1.56-.43,2.44.34,1.92-.44-.23,2.87-2.33.33-1.38.38-.52,1.04-1.07,1.76-1.63.72-.56,1.49-1.13,2.15-1.59l-.02.12,1.73-.97c-.19.25-.68.61-.58.86l2.17-1.83c-.61.55-.35.52.13.35.49-.17,1.26-.41,1.62-.44.12-.48,1.04-1.13-.02-.99-1.21.13-.56.44-1.54.84l1.18-1.12h.14l.68-.79c1.97-.68-.44,1.45,1.87.07l-.55-.56c.73-.26,1.55-.41,2.39-.53.83-.12,1.68-.24,2.5-.36.41-.06.8-.12,1.19-.18.39-.04.77-.07,1.13-.1.72-.08,1.36-.19,1.88-.35-.53.49-.68,1.17.17,1.43-.46,0-1.14.09-1.86.2-.36.06-.74.11-1.1.19-.35.1-.7.21-1.01.3-.14-.03.21-.34.78-.66.57-.31,1.37-.55,2.09-.59-.44-.52-1.32-.22-2.1.11-.78.37-1.48.73-1.7.18-1.84.26-2.43.71-2.95,1.1-.51.43-.94.82-2.51,1.03.14.51-.74.54-.72,1.03.58.24,1.52-.11,2.58-.58,1.04-.52,2.28-.89,3.26-1.02-.18.09-.53.26-.58.37,1.4-.2,1.93-.46,2.84-.89l-.13-.03c1.59-.83,1.13.21,2.15.27.37-.14,1.77-.19,1.5-.54.62.08,1.24.14,1.85.24l-.15-.58c1.03-.09,1.28.29,2.18-.12v-.53c-.85,0-1.72-.05-2.58-.02,1.29-.29.31-.54,1.76-.73-1.58.66,1.17.23,1.35.71l1.05-.35-.27.15c.84.25.99-.28,1.96-.18-1.14-.32-1.92-.6-3.38-.17,1.05-.34,3.19-.82,3.73-.75,1.15-.17,1.93.27,2.98.39-2.04.11.59,1.62-3.37,1.05.07-.1.4-.06.52,0-.52-.76-2.4.07-3.24.37.24.38-.64.52.87.66-.25-.11.06-.34.62-.52.28-.08.62-.17.98-.18.36,0,.75.04,1.1.14l-.27.82,2.06.2-.2.03c.73.58,2.21-.04,3.58.54.53-.07,1.75.1,2.66.16.91.03,1.49.05.74-.57,1.15.8,2.38.45,3.8.7l-1.64-.77c2.2-.04,1.51.15,3.43-.28.1.28.4.58,0,.69,1.33.52,2.95,1.15,4.43,1.72,1.44.66,2.78,1.19,3.7,1.26.92.44,1.27,1.02,1.76,1.53.49.53,1.07,1.06,2.37,1.63.29.11.29-.12.41-.22s.36-.09,1.05.58c.06.12-1.79-.57-.09.62,1.55.4,2.62,2.28,4.35,3.21.6.86,1.96,1.98,1.34,2.09-1.1-1.16-2.84-2.6-3.26-2.63.37-.1-.72-.91.37-.38-1.7-1.76-1.45-.7-3.03-2.2-.23.08.56,1.12,1.04,1.25-.2.28-1.1-.29-1.81-.69-.71-.41-1.26-.61-.72.25,1.74,1.39,3.21.63,4.29,2.45-.84-.21-1.65-1.19-2.87-1.22l1.11,1.17c.41.11.84.19,1.23.33l-.12.03c.84,1.19,1.44,1.49,2.1,1.69.64.22,1.43.25,2.42,1.08-.68-1.45,1.1-.58.52-1.62,1.28,1.24,2.09,2.28,1.58,2.74-2.62-2.03-.66.32-3.19-1.36.09.25-.22.31-.39.46-.18.15-.2.38.34,1.05,1.67,1.1.02-.83,1.5.46.03.13.07.26-.05.28.87.43.61.86,1.64,1.41l-.28-.1c.55,1.28,1.28.87,1.63,2.07.13-.68.8.37,1.5.77-.57-1.05-.32-2.06-1.87-3.9-.5.05-.56.32-1.36-.27l1.07,1.11c-.27-.2-.52-.32-.79-.49l-.83-1.23c1.47,1.19,1.22.27,2.08.6.99,1.44.98,1.06,1.55,2.01-.53.28,1.24,3.24,1.83,5.17-.14-.27-.35-.6-.45-.79-1.05-1.01.09,1.1-.03,1.22l.79.73c-.14-.15-.39-.3-.24.11.82,1.12,1.28.79,1.99,2-.25.24-1.2-.59-.98.26-.12.4-.4,1.56.64,3.06.18.06.42.47.65.96-.04-.06-.09-.15-.12-.17l.08,1.25c-.44-.38-.55-.88-.67-1.39-.12-.51-.31-.99-.78-1.33l-.52.14c-.34-.7-1.01-1.56-1.46-1.86.43,1.1.66,1.26,1.34,2.41-.23.3-.85-.43-.94-.53l.36.05c-.14-.8-.51-1.28-.94-1.77-.22-.24-.43-.5-.67-.79-.25-.28-.5-.61-.73-1.04-.13-.26,0-.13.11-.12-1.25-1.06-1.42-2.79-2.93-3.58l.52.23c-.83-.68-2.35-2.06-4.11-3.11l-.16.13c.05.24-.43-.3-.64-.65h0c-.42-.28-.83-.55-1.21-.8-.41-.23-.79-.44-1.13-.63.09.26.25.54.49.8.41.01,1.42,1.49,1.67.92.3.83,1.56,1.49,1.79,2.09-.22-.53,0-.48.33-.28.31.21.71.55.89.54-.05.51,1.01,1.31.55,1.47.03.25-.08-.62-.58-.83-1.03-.66.96,1.92-.23,1.02,1.43,1.21,2.46,3.39,3.84,4.78l-.39-1c.44.72,1.35,2.5,1.22,2.73-.33-.53-.61-1.21-1.08-1.86-.43.19.84,1.71.6,1.94l1.8,1.73-.42-.94c.26.23.63.84.81,1.65.22.79.43,1.71.67,2.47-.5-.31-.71-.86-.9-1.53-.19-.66-.34-1.45-.86-2.13-.77-.96-.32.95-.96,0-.03.33.32.97.62,1.23l.03.46c-.93-.68-1.84-2.69-2.94-3.75.12.08.23.15.31.15-.31-1.1-.96-2.06-1.66-2.91.12.61.36.72.6.97-.12.12-.71-.72-1.06-.96.36.96-.23.37,0,.97-.48-.46-.66-.97-1.09-1.63-.04-.47.49.08.7-.17-.65-.54-.25-1.3-1.28-2.06.86,1.37-.82.09-1.31-.21l.14.23c-.3-.08-.51-.2-.64-.37-.15-.15-.21-.34-.2-.59.58.36.83.96,1.03.56-.26-.35-.56-.65-.98-.93l.51.15-1.51-1.53c-.48-.02-1.2-.1-1.75.04-.11-.59-.84-.85-1.26-1.09l.26.04c-.5-.82-2.14-2.07-2.5-1.88-.09-.15.17-.15.56-.1.38.06.85.22,1.24.28.76.16,1.16-.03-.77-1.47-1.46-1.09-1.5.09-2.5-.25,0,0,.1-.05.06-.16-.59-.51-.84-.29-1.46-.5.31.36.82.79,1.08.8-.21.09-.52-.15-.86-.43-.35-.27-.76-.53-1.1-.55.99-.13-1.14-.97-.47-.93-.56-.56-1.23-1-1.93-1.19-.7-.19-1.35-.24-1.81-.2-.29-.58-.72-.75-1.23-.91-.51-.18-1.15-.21-1.87-.68.23.11.72.16,1.02.36,1.09-.13-1.55-.84.01-.75-.33-.04-.12.24.22.28.57.12,1.13.19,1.09-.09-.35-.36-.75-.62-1.14-.93l.51.06-1.83-1.31c-.09.07.06.26.14.36-.57-.27-1.17-.56-1.8-.74-.64-.17-1.29-.32-1.93-.46s-1.27-.28-1.88-.42c-.62-.08-1.21-.16-1.75-.26-.16.33-.57.48-1.13.53-.56.07-1.26-.05-2.02,0-1.5.04-3.17-.12-4.03.37.46-.43.72-1.14.43-1.42.39-.05,1.23-.56,2.14-.4.14.23,1.24.54.5.76,2.5-.04-.29-.63.48-1.11-1.42.02-2.54.13-3.51.44-.97.31-1.8.64-2.65.85l-.06-.16c-.43.14-.86.22-1.27.4.53-.03.81.22.77.38-.04.19-.38.29-1.05.28l.16-.06c-.8-.21-2.34.42-3.53.54-.24.2-.46.43-.69.64-1.16.25-1.42-.57-1.94-.96-1.91.36-2.71,1.52-3.82,2.34-.34-.05-1.22.08-1.8.25-.59.15-.95.17-.36-.37-.72.53-.78,1.2-1.04,1.78-.13.29-.31.55-.66.75-.17.1-.38.19-.65.26-.26.09-.56.18-.94.25l.47-.71c-.59.38-1.22.83-1.85,1.3s-1.28.92-1.82,1.46c-1.1,1.03-2.12,1.81-2.71,2.11-.04-.84-.88-.51-1.91-.02-1.01.49-2.23,1.11-2.82.9.3.1-.36.98-.36,1.2-.27.08-.65.28-.74.76.95-.66.45,1.45,1.5-.46-.07,1.41-.55,2.75-1.88,4.59l-.4-.34,1.21-1.36c-.43-.11.21-.8.35-1.2-.32.29-.56.49-.76.63-.18.15-.31.23-.41.26-.2.06-.28-.07-.35-.2-.14-.25-.25-.46-1.3,1,.07.48.09.22-.36,1.04.25-.36,0-.64-.43-.07l-.06.78c-.68.3-.57-.25-.31-.74.24-.5.52-1.01-.06-.75.5-1.37,1.83-3.5,1.06-3.55-1.67,1.73-.3,2.47-2,4.22l-.37.06c-.28.85.04,1.21.04,1.75-.16-.05-.38.07-.7.51-.07.79-.24,1.37-.3,1.99s-.11,1.22-.05,1.95c.24-.83.47-1.39.7-1.83.25-.42.51-.69.76-.98.52-.56.98-1.14,1.74-2.74-.16.56-1.25,2.77-.71,3.25l-.44-.29c-.4,1.07-.58,2.22-1.35,3.4l.1-.9c-.24.92-.76,1.52-1.2,2.13-.37.63-.68,1.26-.52,2.1.22-.47.35-.87.39-1.2-.1.99-.59,2.08-1,3.04l.31,2.3c-.25-.08-.6,1.22-.85.49-.19.35-.31.67-.36.97-.02.3,0,.57.04.83.09.51.25.94.25,1.39-.79,1.47-.04-1.37-.74-1.67-.28,1.07-.46,2.2-.54,3.21-.01,1.02.15,1.93.35,2.55.13-.44.23-.65.36-.62-.17.06-.17.93-.2,1.42l.32.34c-.28.8-.47.7-.69,0-.15.79.63,1.7.15,2.52-.22-.66-.33-1.42-.29-2.1s.1-1.28-.01-1.64c.09,1.41-.22,2.1-.39,2.92-.19.81-.42,1.75-.07,3.53-.16.06-.57-.51-.46.18.37,1.59.77.33,1.22.78-.19-.59-.29-1.03-.23-1.42s.21-.73.41-1.09l.29.3c-.13.06-.13.82-.23,1.05l.59.13c-.64-.03-.92,1.25-.55,2.17.3-1.03.32-.76.99-1.12.89,1.18-.48,1.59.53,2.91-.26-.05-.61-1.31-.57-.17.21.91.65.68.96,1.24-.68-.55-1.01-.29-1.82-.91-.37-1.65-.11-.67-.59-2.27l-.22,1.47c-.3-1.43-.75-.95-.96-1.04-.16,2.62,1.09,1.73,1.33,3.31.54.66-.3-1.47.37-.39.3,1.45.42.25,1.04,1.78l-.3-.2c-.17.58.29.96.57,1.49.37.54,1.49-1.21,2.39,1.14-.18-.06-.28-.07-.34-.05-1.64-.27-3.37-.6-5.03-1.05.44,1.36.99,2.8,1.46,4.33.31.74.62,1.49.94,2.25.33.75.56,1.57.97,2.3-.16.54-.65.13-1.07-.41-.4-.56-.78-1.21-.91-1.03l-.52-1.48c.37-.07,1.51,2.88,1.48,1.33-.69-1.16-1.12-2.06-1.52-2.94-.35-.9-.75-1.76-1.56-2.85-.27.52.07,1.32.46,2.21.19.45.39.92.59,1.38.21.45.36.91.39,1.37-.25-.67-.63-1.17-.96-1.67.25.77.6,1.53.91,2.34.34.79.61,1.66,1.04,2.48l.4.25c-.29-.55-.51-1.02-.63-1.39-.14-.36-.22-.59-.23-.65.16.38.35.72.54,1.03.2.3.45.54.68.73.45.39.88.56,1.18.44l-.13-.25.47.39.48,1.02.1-.1Zm80.54-13.23c.03.11.08.2.15.28-.07-.08-.15-.03-.15-.28ZM7.03,45.31c-.1.55-.23,1.1-.32,1.65-.06.56-.12,1.11-.18,1.66-.11,1.11-.27,2.21-.3,3.28,1.38-3.89,2.47-6.3,2.15-.14l.11.4c.07-.81.25-2.19.2-3.51-.18-.54-.7-1.71-.97-2.77-.32-1.06-.62-2.01-.7-2-.4.33-.11.96-.33,1.66l.33-.24h.01Zm2.29-1.22c.32-1.17,0-.95-.21-1.18-.03.43-.07.86-.1,1.28.09-.15.18-.21.31-.1Zm-.46-1.16c-.03.13-.06.25-.1.3l.1-.3Zm1.4,23.56s-.03-.07-.06-.11c.08.28.16.56.25.85,0-.13-.05-.35-.19-.74Zm-.18-2.55l-.51-.16c.05.27.1.54.16.82.17-.15.32-.29.35-.66Zm-.05-7.92c-.57-.43-.67-2.07-1.31-2.14-.17-.1-.21.26-.24.65,0,.44.01.91.02,1.41.1,0,.17.1.28.25.04-.5.19-.84.58-.67-.76,1.33.74,1.04.7,2.38.5.35.21-1.51-.03-1.89h0ZM81.3,16.72c0,.07.02.26.05.5l-.96-.33c-.64-.56-1.1-1.23-1.62-1.8-.5-.59-1.12-1-1.99-1.07-.51-.54-.63-1.1-.78-1.58.3.21.57.41.78.6,2.21.63,2.48,1.31,2.65,1.85.18.56.22,1.08,1.87,1.83Zm-17.4-9.8c.19,0,.27-.08.27-.08-2.04-.01-3.88.2-5.42.17-.39,0-.76-.01-1.11-.03-.36.01-.7.02-1.03.04-.65.01-1.24,0-1.75-.04.39.5,2.2.88,3.03,1.19-.27.13-.54.27-.81.44l-.44-.43-1.35.41c.35.37,1.4.35,2.07.65.06-.1,2.36-.35,3.06-.57l-1.76-.63c.24.11.96.23,1.75.32s1.65.14,2.13.23c.04-.12-.33-.41-.75-.54-.43-.13-.91-.16-1.06.1-.14-.41,1.8-.12.66-.72.78-.13,1.71.15,2.58.42.87.28,1.67.63,2.17.85v.67c1.01.63.98-.48,2.19.36-1.66-.47.03.77-1.26.35.33.38-.21.66,1.06,1.07.68-.21.97.04,1.23.29.27.25.52.51,1.14.41.52.55-.89.15.3.85,1.61.27,1.69-.05,2.05-.57-1.3-.82-1.88,0-2.92-.66.87.01,1.76.05,2.67.09-.35-.34-.65-.5-.93-.58.48.16.93.2,1.36.17.24-.02.47-.03.67-.03-1.3-.63-2.44-1.2-2.54-1.54l.3-.19c-.34-.51-1.24-.57-1.68-.5-1.24-.42-2.59-.46-2.73-.93l.55-.09c-.76-.25-1.21-.33-1.7-.43s-1.02-.23-2-.48v-.04Zm-47.57,15.86c.74-.04,1.42-.15,2.35-.6.45-.23.95-.56,1.5-1.05.56-.48,1.14-1.16,1.95-1.91l-.2.29c1.06-.49,1.7-1.38,2.4-2.33.74-.9,1.62-1.77,2.93-2.28-.8,1.13-.78,1.06-1.32,2.67l.91-1.07c.06.71.97-.35,1.79-.94l-.29,1.12c-.59.19-1.88,1.06-1.74,1.16.11-.13-.44,0-1.14.27-.65.34-1.45.85-1.86,1.37.44.27,2.32-1.72,1.94-.29.28-.5.54-.65.83-.78.28-.14.58-.26.97-.66-.65.9.2.69-.21,1.43l1.33-1.2c.13.11-1.85,1.83-.32,1.44.41-.62,2.09-1.48,1.82-1.94l.13.11c1.18-.59.09-.93,1.65-1.52-.12-.24-.48-.23-.96.12-.36.37-.25.68-1.04,1.31-.3-.03-.05-.21.16-.39.22-.16.4-.34-.1-.44-.51-.11-2.01,1.87-1.87.77l1.15-.72c-.29-.48.57-.99.32-1.32.62-.61,1.61-.51,2.12-1.35.14-.48-.72-.72.67-1.21,1.41.22,4.24-1.44,5.42-1.87l.91-.69c-.2-.27-1.95.76-1.44.13l1.58-.71-.06.24c.55-.14,1.02-.58,1.49-.83-.41.5-1.6.82-1.2,1.24.79-.16.95-.06,1.62-.34-.14.08-.26.16-.22.23,1.61-.17,1.33-.98,1.69-1.25,1.43-1.11-1.78-.23-1.75-.82l2.35-.76,1.18-.38c.4-.11.8-.18,1.21-.27-.39.24-.77.48-.57.68,1.23.07.11.42,1.75.14-.12-.36.39-.56,1.07-.74.34-.09.72-.19,1.09-.28s.73-.15,1.02-.28c.58.28.7.33-.52.4.19.48,1.79.21,2.37.23.33-.14.9-.24,1.26-.37-.49-.21-.3-.55.78-.78l.06-.1c-.88-.07-2.01-.15-3.07-.19-1.05-.03-2.03-.02-2.55.35l.28-.29c-2.11-.08-4.27,1.47-5.36.89,0-.38-.42.02-.51-.5l-1.38.78.25-.31c-.82.28-1.68.46-2.47.83l.03-.12c-1.01.88-1.77,1.57-2.36,2.13.08.21.18.25-.13.55-.33.24-.61.36-.86.46h0c-.58.21-1.09.08-1.84.29.7-.35,1.4-.73,2.11-1.06.03-.42-.32-.76-1.49-.48.43-.22.49-.59-.07-.37-.02.12-1.33.92-.67.95-.99.57-2.47.96-3.93,1.75-.74.37-1.52.77-2.26,1.24-.72.5-1.38,1.12-1.97,1.78,1.75-1.87-1.94.79.22-1.02-.97.34-1.23.72-1.43,1.15-.2.44-.4.87-1.14,1.52-.27-.06.81-.71.92-1.3-.73.42-1.24,1.01-1.74,1.55-.49.55-.92,1.11-1.34,1.67-.44.54-.8,1.14-1.21,1.73-.41.58-.87,1.15-1.44,1.71l-.46-.22c-.38.47-.73,1.05-1.09,1.66h0Zm-3.01,5.51c-.26.55-.56,1.08-.78,1.67.03-.05.06-.1.09-.16l-.43,1.8c.65-.91,1.43-1.3,1,.18-.12-.21-.54.09-.41-.44-.7.79-1.95,2.73-1.02,2.48.22-2.06,1.05-.02,1.25-1.62.08.95-.48,1.57-.59,2.36-.03-.45-.25-.49-.56-.3-.29.2-.64.66-.94,1.2-.07.54-.68,1.86-.79,2.75.54-.16.52.63,1.12-.66-.03.26-.1.59-.22.94-.08.37-.22.77-.45,1.17.01-.37.12-.99-.05-.99-.54.45-.7,1.12-.96,1.45-.05.3-.11.6-.16.9.06-.08.13-.14.21-.18l.14,1.06c.13-1.34.36-.55.61-.47-.5-.16-.28.81-.37,1.25l.79-.82c.08.26-.12.63-.27.93-.12.31-.18.53.11.47.65-1.95.81-2.71,1.09-4.55l-.6.61c.09-1.07.45-1.3.77-1.57.33-.26.71-.54,1.1-1.63-.11-1.09,1.38-3.21.68-3.61.1.37,1.24-1.02,1.32-1.88-.17-1.11,1.18-3.52.47-2.99-.4.64-.57,1.69-1.29,1.97l.63-1.32-.84.62c.38-.35.03-.51-.6-.61h-.05ZM3.51,61.49v.06-.07h0Z"/>
        <path class="cls-3" d="m95.74,33.11c.38.31.68,1.35.98,1.01-.19.09-.38-.36-.54-.73-.19-.36-.36-.65-.45-.27h0Z"/>
        <path class="cls-3" d="m95.83,34.46c.12.03.25-.08.43.37l-.56-1.2.12.83h0Z"/>
        <path class="cls-3" d="m93.56,36.71c.52.49.83.82,1.15,1.77-.86.67-.85-1.46-1.91-1.54.26.86.66,1.34,1.06,1.79.38.46.73.9.96,1.61.1-.41.09-1.41-.2-2.23-.28-.82-.68-1.52-1.06-1.4Z"/>
        <polygon class="cls-3" points="92.06 36.43 92.61 37.27 92.64 37.16 92.08 36.31 92.06 36.43"/>
        <path class="cls-3" d="m85.45,12.31c.12-.32-.68-.52-1.05-.7.25.21.56.55,1.05.7Z"/>
        <path class="cls-3" d="m89.76,87.3c.99-1.18,2.01-2.32,2.94-3.53l2.61-3.77c-.74,1.09-1.48,2.12-2.31,3.31-.4.61-.89,1.2-1.45,1.84-.54.65-1.14,1.36-1.8,2.15h0Z"/>
        <path class="cls-3" d="m57.59,3.01c1.19-.06,2.05-.09,2.94-.17.88-.04,1.79-.14,3,.06-1.51-.66-2.63-.51-3.65-.42-.51.05-1,.11-1.52.08s-1.08-.04-1.74-.26c0,0,.97.71.97.71Z"/>
        <path class="cls-3" d="m58.7.52c.17.35-.32.41-.81.56-.49.13-.98.24-.82.48,1.64-.06.82-.56,2.29-.3l-.66-.74Z"/>
        <polygon class="cls-3" points="66.37 12.55 65.71 12.64 66.2 12.7 66.37 12.55"/>
        <polygon class="cls-3" points="47.49 1.05 47.74 .87 46.5 .86 47.49 1.05"/>
        <path class="cls-3" d="m48,.71c-.09.05-.17.1-.26.16.08-.06.17-.11.26-.16Z"/>
        <polygon class="cls-3" points="65.24 13.53 66.02 13.96 66.51 13.84 65.24 13.53"/>
        <path class="cls-3" d="m58.15,8.66l.86-.07c-.17.01-1.28-.41-.86.07Z"/>
        <polygon class="cls-3" points="40.05 2.2 38.94 2.73 39.08 2.76 40.18 2.23 40.05 2.2"/>
        <path class="cls-3" d="m51.63,10.1c.57.44-1.6.21-.44.57,1.01-.12.59-.35.44-.57Z"/>
        <path class="cls-3" d="m38.99,9.12c-.13.05-.27.12-.39.22.16-.08.28-.15.39-.22Z"/>
        <path class="cls-3" d="m38.99,9.12c.43-.16.92-.15,1.19-.34-.62-.08-.79.11-1.19.34Z"/>
        <path class="cls-3" d="m34.14,11.19l.39-.15c-.29.4-.12.28.15-.06.39-.21.31-.33.32-.45.06-.09.11-.19.17-.29-.1.12-.19.22-.26.31-.62.3-.99.5-.76.63h-.01Z"/>
        <path class="cls-3" d="m12.65,17.95c1.35-1.23,1.72-1.52,1.93-1.2,1.23-1.18.6-1.41,1.19-2.28-1.27,1.48-1.66,1.66-3.12,3.48Z"/>
        <path class="cls-3" d="m15.77,14.47c.14-.17.3-.3.47-.49-.21.19-.37.33-.47.49Z"/>
        <path class="cls-3" d="m41.04,12.74c-.22.26-.43.55-.64.82l.27-.18c.12-.21.24-.44.37-.64Z"/>
        <path class="cls-3" d="m10.87,19.98c.22-.26.53-.7.79-.83-.23-.3-1.01,1.09-.79.83Z"/>
        <path class="cls-3" d="m20.52,19.66c.25.02.89-.75,1.26-.96-.45.37-1.32.18-1.26.96Z"/>
        <path class="cls-3" d="m9.24,25.08c.19-.27.66-.57.8-.22.09-.5-.11-1.4-.8.22Z"/>
        <polygon class="cls-3" points="18.54 21.74 18.78 21.66 19.33 20.7 18.54 21.74"/>
        <path class="cls-3" d="m24.93,22.79c.5-1.05-2.02.42-.88-1.12-.55.32-.75.53-.81.66-.06.12.03.15.15.17.23.05.55.07-.08.71.79-.7,1.58-.61,1.62-.42Z"/>
        <path class="cls-3" d="m23.31,23.21c-.12.1-.24.21-.36.34.15-.13.26-.24.36-.34Z"/>
        <path class="cls-3" d="m12.42,34.98c.02-.18,0-.3,0-.42-.01.14-.01.28,0,.42Z"/>
        <path class="cls-3" d="m19.95,27.82l.46-1.7c-.16.58-.65,1.41-1.03,2.12-.4.7-.53,1.37-.23,1.46.52-.7,1.07-1.59,1.09-2.12,0,0-.29.24-.29.24Z"/>
        <path class="cls-3" d="m1.22,42.93l-.11-.94-.25,1.11c.15-.31.53.35.36-.17Z"/>
        <path class="cls-3" d="m.81,43.31l.05-.22s-.04.11-.05.22Z"/>
        <path class="cls-3" d="m13.53,31.84c.29-.49.46-.91.6-1.43-.21.13-.92,1.37-.6,1.43Z"/>
        <polygon class="cls-3" points="1.51 49.29 1.48 47.82 1.44 49.42 1.51 49.29"/>
        <path class="cls-3" d="m.53,56.21l-.11.27c.09.41.23.81.37,1.21l.08-.27c-.15-.4-.25-.8-.35-1.2h.01Z"/>
        <path class="cls-3" d="m13.29,48.18c.07-.76-.36-1.42-.53-1.23-.1.5-.07,1.01-.1,1.51.54-.34-.02-.42.2-1.28.1.33.28.67.42,1.01h.01Z"/>
        <path class="cls-3" d="m28.27,97.05c-.54.08-2.26-1.19-2.18-1.53.32.03,1.36.5.85-.05l-1.86-.15c-1.6-1.59,2.03-.05,3.08.23-.92-.62-1.59-.9-2.28-1.18-.7-.28-1.43-.54-2.37-1.28.52.47.74.93.97,1.27-.29.58-1.93-1-3.25-1.92.66.82.06.64-.69.37-.12-.07-.21-.1-.29-.1-.09-.03-.17-.06-.26-.09l.16.12s-.07.13-.02.3c1.2.69,1.75,1.72,2.47,2.26-.07-.67.54-.21,1.38.33.84.55,1.85,1.29,2.4,1.45l1.15.58.41.24c.03.14-.15.19-.87-.02.59.2,2.43,1.1,2.39.76l2.1,1c.35.16.7.34,1.05.49l1.09.4c.12.09.24.18.32.28.17,0,.22-.04.21-.09,6.31,2.4,13.07,3.55,19.79,3.41-1,0-1.85-.3-2.86-.45,1.54-.56-1.66-.2-1.18-.78.69-.18,1.67-.07,2.26.11.22-.29-.61-.6-.5-.96-1.21-.25-1.92-.02-2.65.23-.36.13-.73.26-1.15.33-.42.06-.9.02-1.5-.12.14-.35.92-.55-.65-.74l.41-.02c-2.56.02-1.79-1.09-3.53-.38l.15-.51c-1.18.11-3.34-.44-4.58-.69l.1-.08c-1.76-.24-2.23-.43-2.75-.62-.5-.22-1.08-.41-2.95-1.08.62.1,1.28.09,1.92.11-1.18-.68-1.7-.23-2.56-.72.1-.06.06-.51.93-.2-1.54-.41-3.15-.77-4.7-1.28-1.18-.25.01.46.06.75l-.02.02Z"/>
        <path class="cls-3" d="m23.51,93.11c-.19-.17-.41-.36-.7-.54.25.21.48.38.7.54Z"/>
        <path class="cls-3" d="m55.42,104.07l-1.41.07c.44.01.9,0,1.41-.07Z"/>
        <path class="cls-3" d="m17.4,89.58c.45.78-.73-.15-.99-.11l2.29,2.07c.12-.16.5-.13.57-.32,0,0-1.87-1.64-1.87-1.64Z"/>
        <path class="cls-3" d="m19.12,92.43c.16-.03.51.07.87.19-.46-.32-.87-.71-1.29-1.09-.09.12-.04.35.42.89h0Z"/>
        <path class="cls-3" d="m25.85,83.92l.34.28.63.27c-.33-.17-.67-.34-.97-.55Z"/>
        <path class="cls-3" d="m30.99,88.63c-.3-.54-1.28-.86-1.62-.98,1,.6.51.43,1.62.98Z"/>
        <polygon class="cls-3" points="31.54 85.1 32.52 85.49 32.47 85.39 31.54 85.1"/>
        <path class="cls-3" d="m65.28,100.56c.21-.07.41-.13.62-.19-.29.07-.47.13-.62.19Z"/>
        <path class="cls-3" d="m54.1,102.56c3.21.44-2.08.59-1.08,1.3l1.76-.33-.14.21,2.15-.17c-.47-.32-.79-.33-.72-.7,1.42,0,1.65.09,1.8.23.14.13.2.37,1.27.43l3.18-.55-.24.15c.27-.05.38-.11.46-.19.9-.13,1.77-.38,2.64-.63l2.61-.73c.88-.21,1.7-.6,2.55-.91l2.52-.99c.86-.48.53-.56.16-.6-.39-.06-.84-.14-.28-.63-2.1.78-5.3,1.57-5.31,2.22.05-.12.13-.35-.33-.31l-1.1.9,1.26-.13c-.55.45-1.89.92-3.18,1.24-1.3.3-2.58.3-2.99.2,1.18-.28,1.43-.56,1.81-.78.39-.2.88-.43,2.54-.64-.19-.14-.85-.31-.16-.59-1.83.65-3.66.85-5.49,1.15-.46.08-.91.16-1.38.23-.46.08-.93.1-1.4.16-.94.11-1.91.26-2.91.46h0Z"/>
        <path class="cls-3" d="m88.94,87.34l.03.07c.02-.08.02-.11-.03-.07Z"/>
        <path class="cls-3" d="m87.93,88.16l-.92,1.8,2.16-2.05-.2-.5c-.09.27-.69,1.15-1.12,1.28,0,0,.08-.53.08-.53Z"/>
        <path class="cls-3" d="m85.61,91.76c1.07-1.15.57-1.57-.2-1.21.86-1.14.96-.01,1.27-1.13-.31-.3-1.39,1.05-1.67,1.34l.6.99h0Z"/>
        <polygon class="cls-3" points="75.85 97.62 76.13 97.22 75.15 97.62 75.85 97.62"/>
        <path class="cls-3" d="m76.13,97.22l.98-.4c-.15-.13-.3-.25-.51-.29l-.47.69Z"/>
        <path class="cls-3" d="m79.59,95.56c.41-.2.85-.43,1.37-.73l-1.37.73Z"/>
        <path class="cls-3" d="m78.48,96.05l.07.05,1.04-.55c-.4.18-.75.34-1.11.5Z"/>
        <path class="cls-3" d="m77.11,96.81c.35.3.75.6,2.01-.32l-.58-.39c-.48.23-.93.52-1.44.71h.01Z"/>
        <polygon class="cls-3" points="38.02 89.15 39 89.25 38.93 89.16 37.95 89.05 38.02 89.15"/>
        <path class="cls-3" d="m43.17,91.18c.25-.01.44-.04.62-.08-.25-.02-.46,0-.62.08Z"/>
        <path class="cls-3" d="m47.61,89.18c1,.57-1.54.32.4.8.13.41-.88.76-1.79.43.14-.35.95-.09.44-.55-.69.32-.88,0-.76.58-1.13.2-1.31.49-2.11.67.34.02.74.13,1.2.24.47.08.98.18,1.51.27s1.07.17,1.59.2c.52.04,1.01,0,1.45-.17.97-.62.47-1.54.56-2.49-.05-.13-.64-.18-1.22-.26-.58-.07-1.17-.03-1.25.28h-.02Z"/>
        <path class="cls-3" d="m46.15,87.99c-.46-.11-.61-.09-.91-.1,0,.35.53.07.91.1Z"/>
        <path class="cls-3" d="m57.82,95.57c.09-.15,1.08-.47.84-.67-.5.12-1,.31-1.51.36.37.01.51.16.67.31Z"/>
        <path class="cls-3" d="m56.48,95.37l.67-.11c-.17,0-.38.03-.67.11Z"/>
        <path class="cls-3" d="m57.91,95.64l-.08-.07s0,.06.08.07Z"/>
        <path class="cls-3" d="m83.39,93.32c.13.23.69-.39.97-.69-.28.18-.7.39-.97.69Z"/>
        <path class="cls-3" d="m100.53,69l.44-.59c-.2.19-.3.29-.44.59Z"/>
        <path class="cls-3" d="m96.06,57.55s-.08-.07-.11-.14c.02.06.06.11.11.14Z"/>
        <path class="cls-3" d="m95.95,57.41c-.15-.43.39-1.64.04-2.13l.1.07-.15-.86c-.01.4-.03,1.01-.04,1.58-.05.57-.07,1.1.06,1.35h0Z"/>
      </g>
    </g>
    <g>
      <rect class="cls-1" x="32.02" y="24.78" width="49.74" height="49.74"/>
      <polygon class="cls-2" points="85.9 60.9 90.05 60.9 59.85 24.78 55.71 24.78 85.9 60.9"/>
      <polygon class="cls-3" points="81.76 60.9 85.9 60.9 55.71 24.78 51.56 24.78 81.76 60.9"/>
      <polygon class="cls-2" points="47.42 38.4 51.56 38.4 40.31 24.78 36.17 24.78 47.42 38.4"/>
      <polygon class="cls-3" points="62.22 60.9 66.36 60.9 36.17 24.78 32.02 24.78 62.22 60.9"/>
      <polygon class="cls-2" points="46.23 60.9 50.38 60.9 20.18 24.78 16.03 24.78 46.23 60.9"/>
      <circle class="cls-2" cx="44.46" cy="61.5" r="24.87"/>
    </g>
  </g>
</svg>