<?xml version="1.0" encoding="UTF-8"?>
<svg id="_レイヤー_1" data-name="レイヤー 1" xmlns="http://www.w3.org/2000/svg" viewBox="0 0 109.5 102.28">
  <defs>
    <style>
      .cls-1 {
        stroke-width: 0px;
      }
    </style>
  </defs>
  <path class="cls-1" d="m109.13,71.32c-.64-1.34-1.99-2.19-3.47-2.19h-36.95c.05-1,.08-2.02.08-3.04,0-19.89-16.59-39.66-17.3-40.5-1.56-1.84-1.96-5.45-.83-7.58l3.17-6c1.52-2.89,1.58-5.91.15-8.28-1.43-2.37-4.12-3.73-7.39-3.73h-24.39c-3.27,0-5.96,1.36-7.39,3.73-1.43,2.37-1.37,5.39.15,8.28l3.17,6c1.12,2.13.73,5.75-.83,7.58-.71.83-17.3,20.61-17.3,40.5,0,14.93,5.43,27.82,14.91,35.36l1.05.84h36.86l1.05-.84c1.99-1.58,3.8-3.41,5.42-5.43v2.43c0,2.12,1.72,3.84,3.84,3.84h29.34c2.12,0,3.84-1.72,3.84-3.84v-7.91l12.32-15.13c.94-1.15,1.13-2.74.49-4.07Zm-62.15,4.07l9.27,11.38c-1.67,3.03-3.73,5.67-6.16,7.81h-31.39c-7.02-6.19-11.01-16.49-11.01-28.51,0-17.04,15.32-35.34,15.47-35.52,3.56-4.19,4.33-11.28,1.77-16.14l-3.17-6c-.15-.28-.23-.51-.27-.66.16-.04.39-.07.71-.07h24.39c.32,0,.55.04.71.07-.04.16-.12.38-.26.66l-3.17,6c-2.57,4.86-1.79,11.95,1.77,16.14.15.18,15.47,18.43,15.47,35.52,0,1.03-.03,2.04-.09,3.04h-11.05c-1.48,0-2.83.85-3.47,2.19-.64,1.34-.45,2.92.49,4.07Zm20,19.2v-4.06h21.66v4.06h-21.66Zm23.23-8.73h-24.8l-.17-.21-5.74-7.04-1.46-1.8h39.54l-7.37,9.05Z"/>
</svg>