<?xml version="1.0" encoding="UTF-8"?>
<svg id="contents" xmlns="http://www.w3.org/2000/svg" viewBox="0 0 569.58 500.51">
  <defs>
    <style>
      .cls-1 {
        stroke-width: 0px;
      }
    </style>
  </defs>
  <path class="cls-1" d="m549.58,166.71H20c-11,0-20,9-20,20v60.67c0,11,9,20,20,20h24.66l31.32,210.54c1.93,12.98,13.08,22.59,26.2,22.59h365.2c13.13,0,24.27-9.61,26.2-22.59l31.32-210.54h24.66c11,0,20-9,20-20v-60.67c0-11-9-20-20-20ZM185.45,439.35c0,10.97-8.9,19.87-19.87,19.87s-19.87-8.9-19.87-19.87v-143.6c0-10.97,8.9-19.87,19.87-19.87s19.87,8.9,19.87,19.87v143.6Zm119.21,0c0,10.97-8.9,19.87-19.87,19.87s-19.87-8.9-19.87-19.87v-143.6c0-10.97,8.9-19.87,19.87-19.87s19.87,8.9,19.87,19.87v143.6Zm119.21,0c0,10.97-8.9,19.87-19.87,19.87s-19.87-8.9-19.87-19.87v-143.6c0-10.97,8.9-19.87,19.87-19.87s19.87,8.9,19.87,19.87v143.6Z"/>
  <path class="cls-1" d="m168.88,128.29c20.36-43.65,64.66-73.98,115.91-73.98s95.56,30.33,115.92,73.98h58.09C435.79,54.07,366.48,0,284.79,0S133.8,54.07,110.78,128.29h58.09Z"/>
</svg>